<svg width="130" height="130" viewBox="0 0 130 130" fill="none" xmlns="http://www.w3.org/2000/svg">
<g clip-path="url(#clip0_1_214)">
<path d="M96.5 0H33.5C14.9985 0 0 14.9985 0 33.5V96.5C0 115.002 14.9985 130 33.5 130H96.5C115.002 130 130 115.002 130 96.5V33.5C130 14.9985 115.002 0 96.5 0Z" fill="url(#paint0_radial_1_214)"/>
<path d="M96.5 1.25H33.5C15.6888 1.25 1.25 15.6888 1.25 33.5V96.5C1.25 114.311 15.6888 128.75 33.5 128.75H96.5C114.311 128.75 128.75 114.311 128.75 96.5V33.5C128.75 15.6888 114.311 1.25 96.5 1.25Z" stroke="white" stroke-opacity="0.3" stroke-width="5"/>
<path fill-rule="evenodd" clip-rule="evenodd" d="M43.4432 83.5419C43.4464 83.5451 43.4515 83.5451 43.4547 83.5419C43.4579 83.5387 43.4631 83.5387 43.4663 83.5419L46.8311 86.9067C48.0027 88.0783 49.9022 88.0783 51.0737 86.9067L99.5236 38.4566C101.35 36.6305 100.169 33.504 97.5913 33.3413L92.2821 33.006C91.4224 32.9517 90.5808 33.2696 89.9717 33.8787L51.0665 72.7838C49.895 73.9554 47.9955 73.9554 46.8239 72.7838L38.7709 64.7308C38.0497 64.0096 37.0115 63.7042 36.0146 63.9201L31.3674 64.9265C29.0466 65.429 28.202 68.3007 29.8811 69.9798L43.4432 83.5419Z" fill="white"/>
<path d="M54.7927 86.9642C56.8873 84.7748 59.9831 84.3373 61.7074 85.9869L75.5336 99.215L67.4763 102.24C65.4009 103.02 63.3223 102.718 61.9901 101.443L54.122 93.9153C52.3978 92.2656 52.6981 89.1535 54.7927 86.9642Z" fill="white"/>
</g>
<defs>
<radialGradient id="paint0_radial_1_214" cx="0" cy="0" r="1" gradientUnits="userSpaceOnUse" gradientTransform="translate(138.45 130) rotate(-136.189) scale(199.364)">
<stop offset="0.285" stop-color="#8A4FFF"/>
<stop offset="0.575" stop-color="#0080FF"/>
<stop offset="0.875" stop-color="#00D1FF"/>
</radialGradient>
<clipPath id="clip0_1_214">
<rect width="130" height="130" fill="white"/>
</clipPath>
</defs>
</svg>
